<svg width="179" height="76" viewBox="0 0 179 76" fill="none" xmlns="http://www.w3.org/2000/svg">
<path opacity="0.894" fill-rule="evenodd" clip-rule="evenodd" d="M37.8416 1.51387C38.0461 1.47861 38.1835 1.5471 38.254 1.71935C38.0482 7.16349 37.9795 12.6429 38.0478 18.1577C37.842 12.6451 37.7733 7.09712 37.8416 1.51387Z" fill="#F83938"/>
<path opacity="0.663" fill-rule="evenodd" clip-rule="evenodd" d="M37.4291 0.897461C37.6354 0.897461 37.8416 0.897461 38.0478 0.897461C38.2746 1.12449 38.4122 1.39846 38.4602 1.71938C38.3916 1.71938 38.3227 1.71938 38.254 1.71938C38.1835 1.54714 38.0461 1.47864 37.8416 1.5139C37.7729 1.5139 37.704 1.5139 37.6354 1.5139C37.5667 1.5139 37.4978 1.5139 37.4291 1.5139C37.1542 1.71938 36.8791 1.92486 36.6042 2.13034C36.7929 1.66718 37.0678 1.25622 37.4291 0.897461Z" fill="#EF7370"/>
<path fill-rule="evenodd" clip-rule="evenodd" d="M38.2541 1.71924C38.3227 1.71924 38.3916 1.71924 38.4603 1.71924C41.2723 4.24692 44.0219 6.84967 46.7091 9.52746C47.3913 10.138 48.0787 10.7545 48.7714 11.3768C49.5399 12.3486 50.4335 13.1705 51.4522 13.8425C52.6209 15.1439 53.8582 16.3768 55.1642 17.5412C55.1723 17.7637 55.2411 17.9692 55.3704 18.1576C49.5624 18.4308 43.7882 18.4308 38.0479 18.1576C37.9796 12.6428 38.0483 7.16338 38.2541 1.71924Z" fill="#FD2C28"/>
<path fill-rule="evenodd" clip-rule="evenodd" d="M37.4291 1.51367C37.4291 7.1301 37.4291 12.7466 37.4291 18.363C31.7219 18.4314 26.0166 18.3629 20.3127 18.1575C20.6668 17.6706 21.0104 17.1911 21.3439 16.7192C22.5933 15.68 23.6933 14.5156 24.6434 13.226C24.7809 13.1575 24.9183 13.089 25.0558 13.0205C25.792 12.7672 26.342 12.2877 26.7056 11.5822C26.8432 11.1712 27.118 10.8972 27.5305 10.7602C28.4814 10.4254 29.1687 9.80892 29.5927 8.91093C31.1738 7.47258 32.686 5.96573 34.1296 4.39038C34.4733 4.1849 34.7482 3.91094 34.9544 3.56847C35.6317 3.23621 36.1817 2.75676 36.6042 2.13011C36.8791 1.92463 37.1542 1.71915 37.4291 1.51367Z" fill="#D40201"/>
<path opacity="0.71" fill-rule="evenodd" clip-rule="evenodd" d="M36.6042 2.13037C36.1817 2.75702 35.6317 3.23647 34.9545 3.56873C35.3717 2.94812 35.9216 2.46866 36.6042 2.13037Z" fill="#E66865"/>
<path opacity="0.196" fill-rule="evenodd" clip-rule="evenodd" d="M38.0479 0.897461C38.1854 0.897461 38.3227 0.897461 38.4603 0.897461C41.1568 3.65325 43.9066 6.32448 46.7091 8.91116C46.7091 9.11664 46.7091 9.32212 46.7091 9.5276C44.0219 6.84981 41.2723 4.24706 38.4603 1.71938C38.4122 1.39846 38.2747 1.12449 38.0479 0.897461Z" fill="#FFD4D3"/>
<path opacity="0.757" fill-rule="evenodd" clip-rule="evenodd" d="M34.1296 4.39062C32.6861 5.96597 31.1738 7.47282 29.5927 8.91117C29.4552 8.97966 29.3178 9.04817 29.1803 9.11665C30.6942 7.40289 32.3439 5.82756 34.1296 4.39062Z" fill="#E56461"/>
<path opacity="0.945" fill-rule="evenodd" clip-rule="evenodd" d="M29.5927 8.91113C29.1687 9.80912 28.4814 10.4256 27.5305 10.7604C27.943 10.0755 28.493 9.52757 29.1803 9.11661C29.3178 9.04813 29.4552 8.97962 29.5927 8.91113Z" fill="#DD3E36"/>
<path opacity="0.22" fill-rule="evenodd" clip-rule="evenodd" d="M48.7714 11.377C49.7901 12.0489 50.6837 12.8709 51.4522 13.8427C50.4335 13.1707 49.5399 12.3488 48.7714 11.377Z" fill="#FFABA9"/>
<path opacity="0.89" fill-rule="evenodd" clip-rule="evenodd" d="M26.7057 11.582C26.3421 12.2876 25.7921 12.7671 25.0559 13.0204C25.4826 12.3891 26.0326 11.9096 26.7057 11.582Z" fill="#DF453F"/>
<path opacity="0.651" fill-rule="evenodd" clip-rule="evenodd" d="M24.6434 13.2261C23.6933 14.5157 22.5933 15.6801 21.3438 16.7192C21.2063 16.7877 21.0689 16.8562 20.9314 16.9247C22.0902 15.6332 23.3275 14.4003 24.6434 13.2261Z" fill="#E87371"/>
<path opacity="0.013" fill-rule="evenodd" clip-rule="evenodd" d="M46.7091 8.91113C50.0625 11.9091 53.362 14.9913 56.6077 18.1577C56.7904 18.3272 56.8591 18.5327 56.8139 18.7741C56.5391 18.7741 56.264 18.7741 55.9891 18.7741C55.9891 18.7057 55.9891 18.6372 55.9891 18.5687C55.94 18.1622 55.6651 17.8197 55.1642 17.5413C53.8582 16.3769 52.6208 15.144 51.4522 13.8426C50.6836 12.8708 49.7901 12.0489 48.7713 11.3769C48.0786 10.7546 47.3913 10.1382 46.7091 9.52757C46.7091 9.32209 46.7091 9.11661 46.7091 8.91113Z" fill="#FFE5E4"/>
<path opacity="0.887" fill-rule="evenodd" clip-rule="evenodd" d="M37.4292 1.51367C37.4979 1.51367 37.5668 1.51367 37.6354 1.51367C37.6354 7.19861 37.6354 12.8835 37.6354 18.5685C37.4626 18.6387 37.3937 18.7757 37.4292 18.9794C37.2917 18.9794 37.1543 18.9794 37.0168 18.9794C34.2018 18.7056 31.3147 18.5686 28.3555 18.5685C25.4684 18.6027 22.5813 18.637 19.6942 18.6712C19.4547 24.1016 19.4204 29.5468 19.5911 35.0068C19.7294 35.1613 19.9012 35.23 20.1066 35.2123C19.9691 35.4178 19.8317 35.6233 19.6942 35.8287C19.4194 33.0239 19.2819 30.1472 19.2817 27.1986C19.3161 24.3219 19.3505 21.4452 19.3848 18.5685C19.7395 18.3868 19.9801 18.1128 20.1066 17.7465C20.2441 17.3356 20.5191 17.0616 20.9315 16.9246C21.0691 16.8561 21.2064 16.7876 21.344 16.7192C21.0105 17.1911 20.6669 17.6706 20.3128 18.1575C26.0167 18.3629 31.722 18.4314 37.4292 18.363C37.4292 12.7466 37.4292 7.1301 37.4292 1.51367Z" fill="#DB2624"/>
<path opacity="0.839" fill-rule="evenodd" clip-rule="evenodd" d="M37.6354 1.51367C37.704 1.51367 37.7729 1.51367 37.8416 1.51367C37.7733 7.09692 37.842 12.6449 38.0478 18.1575C43.7882 18.4307 49.5624 18.4307 55.3704 18.1575C55.2411 17.9691 55.1722 17.7636 55.1642 17.5411C55.6651 17.8195 55.94 18.162 55.9891 18.5685C49.8711 18.5685 43.7533 18.5685 37.6354 18.5685C37.6354 12.8835 37.6354 7.19861 37.6354 1.51367Z" fill="#F94D4A"/>
<path opacity="0.412" fill-rule="evenodd" clip-rule="evenodd" d="M37.6354 18.5684C43.7534 18.5684 49.8712 18.5684 55.9891 18.5684C55.9891 18.6368 55.9891 18.7054 55.9891 18.7738C50.0087 18.7738 44.0283 18.7738 38.0479 18.7738C37.9792 18.7738 37.9103 18.7738 37.8417 18.7738C37.7041 18.8423 37.5668 18.9108 37.4292 18.9793C37.3937 18.7756 37.4626 18.6386 37.6354 18.5684Z" fill="#FCA6A5"/>
<path opacity="0.073" fill-rule="evenodd" clip-rule="evenodd" d="M36.8105 0.897461C37.0167 0.897461 37.2229 0.897461 37.4291 0.897461C37.0678 1.25622 36.7929 1.66718 36.6043 2.13034C35.9217 2.46863 35.3717 2.94808 34.9545 3.56869C34.7483 3.91117 34.4734 4.18513 34.1296 4.39061C32.3439 5.82755 30.6942 7.40288 29.1803 9.11664C28.493 9.5276 27.943 10.0755 27.5305 10.7605C27.1181 10.8975 26.8432 11.1714 26.7056 11.5824C26.0325 11.9099 25.4825 12.3894 25.0559 13.0207C24.9183 13.0892 24.781 13.1577 24.6434 13.2262C23.3275 14.4005 22.0902 15.6334 20.9314 16.9249C20.519 17.0619 20.244 17.3358 20.1066 17.7468C19.8114 17.8663 19.5365 18.0376 19.2817 18.2605C19.1265 18.3983 19.0578 18.5695 19.0755 18.7742C18.8696 24.4923 18.8009 30.2457 18.8692 36.0344C12.8201 36.0344 6.77092 36.0344 0.721769 36.0344C0.66654 36.363 0.73528 36.6369 0.92799 36.8564C0.996729 36.8564 1.06547 36.8564 1.13421 36.8564C1.27169 36.9248 1.40917 36.9934 1.54665 37.0618C1.61539 37.1989 1.68413 37.3357 1.75287 37.4728C1.82161 37.7467 1.89036 38.0208 1.9591 38.2947C0.977635 37.7331 0.427712 36.9112 0.309326 35.829C6.42723 35.829 12.5451 35.829 18.663 35.829C18.5943 29.937 18.6631 24.0466 18.8692 18.1577C24.8593 12.3943 30.8398 6.64084 36.8105 0.897461Z" fill="#FCEAEA"/>
<path fill-rule="evenodd" clip-rule="evenodd" d="M37.0168 18.9793C36.6043 19.5273 36.1919 20.0752 35.7794 20.6232C34.8987 21.1576 34.1427 21.8425 33.511 22.6779C32.0693 23.7721 30.7633 25.005 29.5928 26.3766C29.2538 26.4403 29.0475 26.6458 28.9741 26.993C28.4885 27.203 28.1447 27.5453 27.943 28.0204C26.7177 28.8984 25.6177 29.9258 24.6435 31.1026C24.1624 31.3081 23.8186 31.6506 23.6124 32.13C22.3866 33.0764 21.2182 34.1038 20.1066 35.2122C19.9012 35.2299 19.7294 35.1612 19.5911 35.0067C19.4204 29.5467 19.4547 24.1015 19.6942 18.6711C22.5813 18.6368 25.4684 18.6026 28.3555 18.5684C31.3147 18.5685 34.2018 18.7055 37.0168 18.9793Z" fill="#D30302"/>
<path fill-rule="evenodd" clip-rule="evenodd" d="M20.1066 35.8286C21.2063 34.5957 22.375 33.4313 23.6123 32.3354C24.0499 32.0169 24.3937 31.606 24.6434 31.1026C25.5555 30.5054 26.4493 29.8549 27.3243 29.1505C27.6277 28.8252 27.8339 28.4484 27.943 28.0204C28.6159 27.9846 28.9596 27.6421 28.9741 26.993C29.3131 26.9293 29.5193 26.7238 29.5927 26.3765C30.9536 25.2957 32.2596 24.1313 33.5109 22.8834C34.4002 22.2713 35.1564 21.5179 35.7794 20.6231C36.4482 20.5123 36.9637 20.1699 37.326 19.5957C37.4291 25.0748 37.4636 30.5541 37.4291 36.0341C31.6397 36.1006 25.8655 36.0322 20.1066 35.8286Z" fill="#61C7C6"/>
<path opacity="0.949" fill-rule="evenodd" clip-rule="evenodd" d="M35.7794 20.623C35.1564 21.5178 34.4002 22.2712 33.511 22.8833C33.511 22.8149 33.511 22.7463 33.511 22.6778C34.1426 21.8424 34.8986 21.1575 35.7794 20.623Z" fill="#909C9A"/>
<path fill-rule="evenodd" clip-rule="evenodd" d="M73.7241 28.0205C73.6266 27.7316 73.4203 27.5946 73.1054 27.6096C73.0079 27.3207 72.8017 27.1836 72.4868 27.1986C72.4181 27.1986 72.3492 27.1986 72.2806 27.1986C72.0465 26.8466 71.7027 26.7096 71.2494 26.7877C69.8634 26.6338 68.5574 26.8735 67.3312 27.5068C66.0642 29.6072 66.614 31.1142 68.981 32.0274C70.9032 32.6202 72.7592 33.3735 74.549 34.2877C75.0157 34.6199 75.4281 34.9966 75.7863 35.4178C75.7713 35.7316 75.9088 35.937 76.1988 36.0342C76.1837 36.348 76.3213 36.5535 76.6112 36.6507C78.3197 40.8231 77.1513 43.9394 73.1054 46C71.0562 46.5359 68.994 46.6386 66.9188 46.3082C66.5033 46.0156 66.0222 45.8788 65.4753 45.8972C64.8042 45.8368 64.2542 45.5629 63.8255 45.0753C63.6683 44.7133 63.3932 44.5078 63.0006 44.4589C62.7944 44.3905 62.6568 44.2534 62.5882 44.0479C62.431 43.6859 62.1559 43.4804 61.7633 43.4315C61.6257 43.226 61.4884 43.0205 61.3508 42.8151C62.1194 41.8431 63.013 41.0212 64.0317 40.3493C64.2379 40.9657 64.6504 41.3767 65.269 41.5822C67.3906 42.8962 69.6591 43.1701 72.0743 42.4041C72.6243 42.267 72.9679 41.9247 73.1054 41.3767C73.5608 39.9692 73.2857 38.7363 72.2806 37.6781C72.183 37.3892 71.9768 37.2521 71.6619 37.2671C69.5861 36.6016 67.5925 35.7796 65.6815 34.8014C65.5839 34.5125 65.3777 34.3754 65.0628 34.3904C64.9653 34.1015 64.759 33.9644 64.4441 33.9794C63.107 32.7963 62.4883 31.2893 62.5882 29.4589C62.5387 27.8214 63.0887 26.4515 64.2379 25.3493C64.7017 25.2301 65.0453 24.9562 65.269 24.5274C66.2224 23.7868 67.3224 23.3416 68.5686 23.1918C72.0337 22.6495 74.9208 23.6769 77.2299 26.274C76.405 27.0959 75.5801 27.9178 74.7552 28.7397C74.2867 28.7239 73.9431 28.4843 73.7241 28.0205Z" fill="#383838"/>
<path opacity="0.067" fill-rule="evenodd" clip-rule="evenodd" d="M82.3854 23.5001C80.9033 23.4334 79.4597 23.502 78.0547 23.7056C77.9428 23.6933 77.8741 23.6249 77.8485 23.5001C79.3931 23.2291 80.9053 23.2291 82.3854 23.5001Z" fill="#383838"/>
<path opacity="0.066" fill-rule="evenodd" clip-rule="evenodd" d="M94.14 23.5002C95.545 23.2966 96.9885 23.2279 98.4707 23.2947C98.5195 23.56 98.4509 23.7655 98.2644 23.9112C96.9756 23.5086 95.6009 23.3716 94.14 23.5002Z" fill="#383838"/>
<path opacity="0.067" fill-rule="evenodd" clip-rule="evenodd" d="M100.739 23.4999C101.181 23.3637 101.662 23.2951 102.183 23.2944C102.754 23.3004 103.235 23.4372 103.626 23.7054C102.753 23.5131 101.859 23.4446 100.945 23.4999C100.877 23.4999 100.808 23.4999 100.739 23.4999Z" fill="#383838"/>
<path opacity="0.067" fill-rule="evenodd" clip-rule="evenodd" d="M124.042 23.4999C129.162 23.2949 134.318 23.2265 139.509 23.2945C139.509 24.5273 139.509 25.7602 139.509 26.9931C135.659 26.9931 131.81 26.9931 127.96 26.9931C131.705 26.7882 135.486 26.7198 139.302 26.7876C139.302 25.6918 139.302 24.5958 139.302 23.4999C134.284 23.4999 129.266 23.4999 124.248 23.4999C124.18 23.4999 124.111 23.4999 124.042 23.4999Z" fill="#383838"/>
<path fill-rule="evenodd" clip-rule="evenodd" d="M174.979 24.3219C175.089 24.7218 175.364 24.9273 175.804 24.9384C176.01 25.0754 176.216 25.2123 176.422 25.3493C176.471 25.7405 176.678 26.0147 177.041 26.1712C176.433 27.1255 175.608 28.0158 174.566 28.8425C174.149 28.564 173.806 28.2217 173.535 27.8151C173.438 27.5262 173.231 27.3891 172.916 27.4041C171.378 26.7303 169.797 26.6276 168.173 27.0959C166.616 28.0179 166.306 29.2849 167.245 30.8973C167.611 31.0625 167.92 31.3023 168.173 31.6164C170.338 32.4266 172.469 33.3172 174.566 34.2877C177.202 36.2391 178.061 38.8076 177.144 41.9932C176.11 44.5275 174.22 46 171.473 46.411C169.944 46.5745 168.432 46.5404 166.936 46.3082C166.521 46.0156 166.039 45.8788 165.493 45.8973C163.928 45.2699 162.587 44.311 161.471 43.0206C161.319 42.7639 161.353 42.5584 161.574 42.4041C162.448 41.8436 163.239 41.1587 163.946 40.3493C164.025 40.4636 164.128 40.532 164.255 40.5548C166.624 42.9624 169.374 43.4761 172.504 42.0959C173.678 40.938 173.816 39.6708 172.916 38.2945C172.848 37.8151 172.573 37.541 172.092 37.4726C170.402 36.7629 168.684 36.1121 166.936 35.5205C166.13 35.2238 165.442 34.7786 164.874 34.1849C164.776 33.896 164.57 33.759 164.255 33.774C164.244 33.3359 164.038 33.062 163.637 32.9521C163.294 32.5425 163.053 32.0632 162.915 31.5137C162.689 30.4791 162.655 29.4517 162.812 28.4315C163.105 28.0175 163.243 27.5381 163.224 26.9932C163.189 26.7893 163.257 26.6525 163.43 26.5822C163.72 26.485 163.858 26.2795 163.843 25.9658C164.133 25.8686 164.27 25.6631 164.255 25.3493C164.648 25.3004 164.923 25.0949 165.08 24.7329C165.178 24.444 165.384 24.3069 165.699 24.3219C166.014 24.3369 166.22 24.1999 166.317 23.911C168.433 23.0424 170.633 22.8712 172.916 23.3973C173.643 23.6488 174.33 23.957 174.979 24.3219Z" fill="#383838"/>
<path fill-rule="evenodd" clip-rule="evenodd" d="M82.3853 23.4998C82.5581 23.5701 82.627 23.707 82.5916 23.9108C82.5765 24.2246 82.714 24.43 83.004 24.5272C82.9889 24.841 83.1265 25.0465 83.4164 25.1437C83.4014 25.4574 83.5389 25.6629 83.8289 25.7601C84.0017 25.8304 84.0706 25.9672 84.0351 26.1711C84.02 26.4848 84.1576 26.6903 84.4475 26.7875C84.4325 27.1013 84.57 27.3068 84.86 27.4039C84.8449 27.7177 84.9825 27.9232 85.2724 28.0204C85.4452 28.0907 85.5141 28.2275 85.4787 28.4313C85.4636 28.7451 85.6011 28.9506 85.8911 29.0478C85.876 29.3615 86.0136 29.567 86.3035 29.6642C86.2885 29.978 86.426 30.1835 86.716 30.2807C86.8888 30.3509 86.9577 30.4878 86.9222 30.6916C86.9071 31.0054 87.0447 31.2109 87.3346 31.3081C87.3196 31.6218 87.4571 31.8273 87.7471 31.9245C87.732 32.2383 87.8696 32.4437 88.1595 32.5409C88.4344 32.1984 88.7095 31.8561 88.9844 31.5135C89.2744 31.4163 89.4119 31.2109 89.3969 30.8971C89.6868 30.7999 89.8243 30.5944 89.8093 30.2807C89.9351 29.8833 90.1413 29.5407 90.428 29.2533C90.7179 29.1561 90.8555 28.9506 90.8404 28.6368C91.1303 28.5396 91.2679 28.3341 91.2528 28.0204C91.3786 27.623 91.5849 27.2805 91.8715 26.993C92.1615 26.8958 92.299 26.6903 92.2839 26.3765C92.5739 26.2794 92.7114 26.0739 92.6964 25.7601C92.8222 25.3627 93.0284 25.0202 93.3151 24.7327C93.605 24.6355 93.7426 24.43 93.7275 24.1163C94.0174 24.0191 94.155 23.8136 94.1399 23.4998C95.6008 23.3712 96.9755 23.5083 98.2644 23.9108C95.6575 28.0124 92.9766 32.0533 90.2217 36.0341C90.0163 39.3542 89.9475 42.7103 90.0155 46.1026C88.7782 46.1026 87.5409 46.1026 86.3035 46.1026C86.338 42.8143 86.3035 39.5266 86.2004 36.2396L85.0662 34.3902L84.4475 33.5683C83.64 32.439 82.884 31.2746 82.1791 30.0752L81.7667 29.4587C80.888 28.1862 80.0631 26.8849 79.292 25.5546L78.6734 24.7327C78.4152 24.4243 78.2089 24.0818 78.0547 23.7053C79.4597 23.5017 80.9032 23.4331 82.3853 23.4998Z" fill="#383838"/>
<path fill-rule="evenodd" clip-rule="evenodd" d="M100.945 23.5C101.859 23.4447 102.753 23.5131 103.626 23.7054C104.461 24.4768 105.149 25.3672 105.688 26.3767C105.737 26.7679 105.944 27.042 106.307 27.1986C106.861 27.7513 107.342 28.3678 107.751 29.0479C107.8 29.4391 108.006 29.7133 108.369 29.8698C108.991 30.4904 109.541 31.1754 110.019 31.9246C110.004 32.2384 110.142 32.4439 110.431 32.5411C110.481 32.9323 110.687 33.2064 111.05 33.363C111.604 33.9157 112.085 34.5322 112.494 35.2123C112.543 35.6035 112.749 35.8776 113.112 36.0342C113.734 36.6548 114.284 37.3398 114.762 38.089C114.747 38.4028 114.885 38.6083 115.175 38.7054C115.233 38.8676 115.336 39.0046 115.484 39.1164C115.587 33.9114 115.621 28.706 115.587 23.5C116.756 23.5 117.924 23.5 119.093 23.5C119.093 31.0343 119.093 38.5684 119.093 46.1027C118.199 46.1027 117.305 46.1027 116.412 46.1027C112.478 41.0886 108.629 36.0202 104.864 30.8972C104.805 30.7351 104.702 30.598 104.554 30.4863C104.451 35.6913 104.417 40.8967 104.451 46.1027C103.282 46.1027 102.114 46.1027 100.945 46.1027C100.945 38.5684 100.945 31.0343 100.945 23.5Z" fill="#383838"/>
<path opacity="0.576" fill-rule="evenodd" clip-rule="evenodd" d="M115.381 23.5C115.449 23.5 115.518 23.5 115.587 23.5C115.621 28.706 115.587 33.9114 115.484 39.1164C115.336 39.0047 115.233 38.8676 115.175 38.7055C115.38 33.6725 115.449 28.6039 115.381 23.5Z" fill="#383838"/>
<path opacity="0.561" fill-rule="evenodd" clip-rule="evenodd" d="M115.381 23.5C116.648 23.2966 117.954 23.2282 119.299 23.2945C119.299 30.9657 119.299 38.6371 119.299 46.3082C118.296 46.3738 117.334 46.3053 116.412 46.1027C117.305 46.1027 118.199 46.1027 119.093 46.1027C119.093 38.5684 119.093 31.0343 119.093 23.5C117.924 23.5 116.756 23.5 115.587 23.5C115.518 23.5 115.449 23.5 115.381 23.5Z" fill="#383838"/>
<path fill-rule="evenodd" clip-rule="evenodd" d="M124.248 23.5C129.266 23.5 134.284 23.5 139.302 23.5C139.302 24.5958 139.302 25.6918 139.302 26.7877C135.486 26.7199 131.705 26.7883 127.96 26.9932C127.96 28.9795 127.96 30.9657 127.96 32.9521C131.466 32.9521 134.972 32.9521 138.478 32.9521C138.478 34.0479 138.478 35.1439 138.478 36.2397C134.972 36.2397 131.466 36.2397 127.96 36.2397C127.96 38.3629 127.96 40.4864 127.96 42.6096C131.81 42.6096 135.659 42.6096 139.509 42.6096C139.509 43.774 139.509 44.9383 139.509 46.1027C134.422 46.1027 129.335 46.1027 124.248 46.1027C124.248 38.5684 124.248 31.0343 124.248 23.5Z" fill="#383838"/>
<path opacity="0.396" fill-rule="evenodd" clip-rule="evenodd" d="M151.882 23.5002C149.064 23.5002 146.245 23.5002 143.427 23.5002C143.427 31.0345 143.427 38.5686 143.427 46.1029C144.664 46.1029 145.902 46.1029 147.139 46.1029C145.872 46.3064 144.566 46.3748 143.221 46.3084C143.221 38.6373 143.221 30.9659 143.221 23.2947C146.144 23.2271 149.031 23.2955 151.882 23.5002Z" fill="#383838"/>
<path fill-rule="evenodd" clip-rule="evenodd" d="M151.882 23.5002C154.06 23.3781 155.916 24.0632 157.45 25.555C157.499 25.9462 157.705 26.2203 158.069 26.3769C158.054 26.6907 158.191 26.8961 158.481 26.9933C158.723 27.2017 158.86 27.4756 158.893 27.8152C158.875 28.3602 159.012 28.8396 159.306 29.2536C159.823 33.8023 157.829 36.5763 153.325 37.5755C151.265 37.6783 149.202 37.7124 147.139 37.6783C147.139 40.4865 147.139 43.2946 147.139 46.1029C145.902 46.1029 144.664 46.1029 143.427 46.1029C143.427 38.5686 143.427 31.0345 143.427 23.5002C146.245 23.5002 149.064 23.5002 151.882 23.5002ZM153.944 27.4043C154.082 27.6782 154.288 27.8837 154.563 28.0207C155.912 29.9276 155.775 31.7428 154.15 33.4659C153.784 33.7616 153.372 33.9671 152.913 34.0824C150.99 34.1851 149.065 34.2192 147.139 34.1851C147.139 31.7193 147.139 29.2536 147.139 26.7878C148.859 26.7537 150.577 26.7878 152.294 26.8906C152.867 27.0059 153.417 27.177 153.944 27.4043Z" fill="#383838"/>
<path opacity="0.518" fill-rule="evenodd" clip-rule="evenodd" d="M94.14 23.5C94.1551 23.8138 94.0175 24.0192 93.7276 24.1164C93.7125 23.8027 93.85 23.5972 94.14 23.5Z" fill="#383838"/>
<path opacity="0.804" fill-rule="evenodd" clip-rule="evenodd" d="M166.317 23.9108C166.22 24.1997 166.014 24.3367 165.699 24.3217C165.796 24.0328 166.002 23.8958 166.317 23.9108Z" fill="#383838"/>
<path opacity="0.569" fill-rule="evenodd" clip-rule="evenodd" d="M82.5916 23.9111C82.8815 24.0083 83.0191 24.2138 83.004 24.5276C82.7141 24.4304 82.5765 24.2249 82.5916 23.9111Z" fill="#383838"/>
<path opacity="0.427" fill-rule="evenodd" clip-rule="evenodd" d="M93.7275 24.1162C93.7426 24.43 93.605 24.6355 93.3151 24.7326C93.3 24.4189 93.4376 24.2134 93.7275 24.1162Z" fill="#383838"/>
<path opacity="0.973" fill-rule="evenodd" clip-rule="evenodd" d="M174.979 24.3218C175.335 24.4299 175.611 24.6353 175.804 24.9382C175.364 24.9271 175.089 24.7216 174.979 24.3218Z" fill="#383838"/>
<path opacity="0.478" fill-rule="evenodd" clip-rule="evenodd" d="M83.004 24.5273C83.294 24.6245 83.4315 24.83 83.4165 25.1438C83.1265 25.0466 82.989 24.8411 83.004 24.5273Z" fill="#383838"/>
<path opacity="0.702" fill-rule="evenodd" clip-rule="evenodd" d="M165.08 24.7329C164.923 25.095 164.648 25.3004 164.255 25.3493C164.412 24.9873 164.687 24.7818 165.08 24.7329Z" fill="#383838"/>
<path opacity="0.886" fill-rule="evenodd" clip-rule="evenodd" d="M33.511 22.6782C33.511 22.7466 33.511 22.8153 33.511 22.8837C32.2596 24.1316 30.9536 25.296 29.5928 26.3769C30.7633 25.0053 32.0693 23.7724 33.511 22.6782Z" fill="#A87D7A"/>
<path opacity="0.941" fill-rule="evenodd" clip-rule="evenodd" d="M65.269 24.5273C65.0453 24.9562 64.7017 25.2301 64.2379 25.3493C64.4617 24.9204 64.8052 24.6465 65.269 24.5273Z" fill="#383838"/>
<path opacity="0.388" fill-rule="evenodd" clip-rule="evenodd" d="M83.4165 25.144C83.7065 25.2412 83.844 25.4467 83.829 25.7605C83.539 25.6633 83.4015 25.4578 83.4165 25.144Z" fill="#383838"/>
<path opacity="0.651" fill-rule="evenodd" clip-rule="evenodd" d="M164.255 25.3491C164.27 25.6629 164.133 25.8684 163.843 25.9656C163.828 25.6518 163.965 25.4463 164.255 25.3491Z" fill="#383838"/>
<path opacity="0.71" fill-rule="evenodd" clip-rule="evenodd" d="M176.422 25.3491C176.786 25.5057 176.992 25.7798 177.041 26.171C176.678 26.0145 176.471 25.7404 176.422 25.3491Z" fill="#383838"/>
<path opacity="0.788" fill-rule="evenodd" clip-rule="evenodd" d="M157.45 25.5547C157.813 25.7113 158.019 25.9854 158.069 26.3766C157.705 26.22 157.499 25.9459 157.45 25.5547Z" fill="#383838"/>
<path opacity="0.518" fill-rule="evenodd" clip-rule="evenodd" d="M92.6964 25.7603C92.7114 26.074 92.5739 26.2795 92.284 26.3767C92.2689 26.0629 92.4064 25.8574 92.6964 25.7603Z" fill="#383838"/>
<path opacity="0.541" fill-rule="evenodd" clip-rule="evenodd" d="M163.843 25.9658C163.858 26.2796 163.72 26.4851 163.43 26.5823C163.415 26.2685 163.553 26.063 163.843 25.9658Z" fill="#383838"/>
<path opacity="0.569" fill-rule="evenodd" clip-rule="evenodd" d="M84.0352 26.1714C84.3251 26.2686 84.4627 26.4741 84.4476 26.7878C84.1577 26.6906 84.0201 26.4852 84.0352 26.1714Z" fill="#383838"/>
<path opacity="0.886" fill-rule="evenodd" clip-rule="evenodd" d="M105.688 26.377C106.052 26.5335 106.258 26.8076 106.307 27.1989C105.944 27.0423 105.737 26.7682 105.688 26.377Z" fill="#383838"/>
<path opacity="0.91" fill-rule="evenodd" clip-rule="evenodd" d="M29.5928 26.377C29.5194 26.7242 29.3131 26.9297 28.9741 26.9934C29.0475 26.6461 29.2538 26.4407 29.5928 26.377Z" fill="#A37D7A"/>
<path opacity="0.859" fill-rule="evenodd" clip-rule="evenodd" d="M71.2494 26.7879C71.7027 26.7098 72.0464 26.8468 72.2805 27.1988C71.8881 27.138 71.5443 27.0009 71.2494 26.7879Z" fill="#383838"/>
<path opacity="0.427" fill-rule="evenodd" clip-rule="evenodd" d="M92.284 26.377C92.2991 26.6907 92.1615 26.8962 91.8716 26.9934C91.8565 26.6796 91.9941 26.4741 92.284 26.377Z" fill="#383838"/>
<path opacity="0.502" fill-rule="evenodd" clip-rule="evenodd" d="M158.069 26.377C158.359 26.4741 158.496 26.6796 158.481 26.9934C158.191 26.8962 158.054 26.6907 158.069 26.377Z" fill="#383838"/>
<path opacity="0.471" fill-rule="evenodd" clip-rule="evenodd" d="M20.1066 17.7466C19.9801 18.1128 19.7395 18.3868 19.3848 18.5685C19.3504 21.4452 19.3161 24.3219 19.2817 27.1986C19.2818 30.1473 19.4193 33.024 19.6941 35.8288C19.6941 35.8972 19.6941 35.9658 19.6941 36.0343C19.5566 36.0343 19.4192 36.0343 19.2817 36.0343C19.0759 30.3162 19.0071 24.5627 19.0755 18.774C19.0578 18.5693 19.1265 18.3981 19.2817 18.2603C19.5365 18.0374 19.8115 17.8662 20.1066 17.7466Z" fill="#E98484"/>
<path opacity="0.01" fill-rule="evenodd" clip-rule="evenodd" d="M38.0479 27.1987C38.1751 27.2215 38.2782 27.29 38.3572 27.4042C38.4947 41.9933 38.4947 56.5823 38.3572 71.1713C38.2999 71.3596 38.1967 71.4964 38.0479 71.5823C38.0479 65.6234 38.0479 59.6645 38.0479 53.7056C38.0479 44.87 38.0479 36.0343 38.0479 27.1987Z" fill="#FDFDFD"/>
<path opacity="0.478" fill-rule="evenodd" clip-rule="evenodd" d="M84.4475 26.7876C84.7375 26.8848 84.875 27.0903 84.86 27.404C84.57 27.3068 84.4325 27.1014 84.4475 26.7876Z" fill="#383838"/>
<path opacity="0.412" fill-rule="evenodd" clip-rule="evenodd" d="M72.4867 27.1989C72.8016 27.1839 73.0078 27.3209 73.1054 27.6098C72.7905 27.6248 72.5842 27.4878 72.4867 27.1989Z" fill="#383838"/>
<path opacity="0.878" fill-rule="evenodd" clip-rule="evenodd" d="M153.944 27.4043C154.357 27.4043 154.563 27.6098 154.563 28.0207C154.288 27.8837 154.082 27.6782 153.944 27.4043Z" fill="#383838"/>
<path opacity="0.941" fill-rule="evenodd" clip-rule="evenodd" d="M28.9741 26.9932C28.9597 27.6423 28.6159 27.9848 27.943 28.0206C28.1447 27.5455 28.4884 27.2032 28.9741 26.9932Z" fill="#959491"/>
<path opacity="0.8" fill-rule="evenodd" clip-rule="evenodd" d="M73.1055 27.6095C73.4204 27.5945 73.6266 27.7316 73.7241 28.0205C73.4092 28.0355 73.203 27.8984 73.1055 27.6095Z" fill="#383838"/>
<path opacity="0.553" fill-rule="evenodd" clip-rule="evenodd" d="M172.917 27.4039C173.231 27.3889 173.438 27.526 173.535 27.8149C173.22 27.8299 173.014 27.6928 172.917 27.4039Z" fill="#383838"/>
<path opacity="0.388" fill-rule="evenodd" clip-rule="evenodd" d="M84.86 27.4043C85.1499 27.5015 85.2875 27.707 85.2724 28.0207C84.9825 27.9235 84.8449 27.7181 84.86 27.4043Z" fill="#383838"/>
<path opacity="0.616" fill-rule="evenodd" clip-rule="evenodd" d="M163.224 26.9932C163.243 27.5381 163.105 28.0175 162.812 28.4315C162.793 27.8866 162.93 27.4072 163.224 26.9932Z" fill="#383838"/>
<path opacity="0.518" fill-rule="evenodd" clip-rule="evenodd" d="M91.2529 28.0205C91.268 28.3343 91.1304 28.5398 90.8405 28.6369C90.8254 28.3232 90.963 28.1177 91.2529 28.0205Z" fill="#383838"/>
<path opacity="0.569" fill-rule="evenodd" clip-rule="evenodd" d="M85.4787 28.4316C85.7686 28.5288 85.9061 28.7343 85.8911 29.0481C85.6011 28.9509 85.4636 28.7454 85.4787 28.4316Z" fill="#383838"/>
<path opacity="0.427" fill-rule="evenodd" clip-rule="evenodd" d="M90.8404 28.6372C90.8555 28.951 90.7179 29.1565 90.428 29.2536C90.4129 28.9399 90.5505 28.7344 90.8404 28.6372Z" fill="#383838"/>
<path opacity="0.616" fill-rule="evenodd" clip-rule="evenodd" d="M158.893 27.8149C159.187 28.229 159.324 28.7084 159.306 29.2533C159.012 28.8393 158.875 28.3599 158.893 27.8149Z" fill="#383838"/>
<path opacity="0.878" fill-rule="evenodd" clip-rule="evenodd" d="M107.751 29.0479C108.114 29.2044 108.32 29.4785 108.369 29.8698C108.006 29.7132 107.8 29.4391 107.751 29.0479Z" fill="#383838"/>
<path opacity="0.478" fill-rule="evenodd" clip-rule="evenodd" d="M85.8911 29.0479C86.1811 29.145 86.3186 29.3505 86.3036 29.6643C86.0136 29.5671 85.8761 29.3616 85.8911 29.0479Z" fill="#383838"/>
<path opacity="0.941" fill-rule="evenodd" clip-rule="evenodd" d="M27.943 28.0205C27.8339 28.4485 27.6277 28.8254 27.3243 29.1506C26.4493 29.855 25.5555 30.5056 24.6434 31.1027C25.6176 29.9259 26.7176 28.8985 27.943 28.0205Z" fill="#949693"/>
<path opacity="0.388" fill-rule="evenodd" clip-rule="evenodd" d="M86.3036 29.6646C86.5936 29.7617 86.7311 29.9672 86.716 30.281C86.4261 30.1838 86.2885 29.9783 86.3036 29.6646Z" fill="#383838"/>
<path opacity="0.522" fill-rule="evenodd" clip-rule="evenodd" d="M89.8093 30.2808C89.8244 30.5945 89.6868 30.8 89.3969 30.8972C89.3818 30.5834 89.5194 30.378 89.8093 30.2808Z" fill="#383838"/>
<path opacity="0.576" fill-rule="evenodd" clip-rule="evenodd" d="M104.863 30.8973C104.658 35.9303 104.589 40.9989 104.657 46.1028C104.589 46.1028 104.52 46.1028 104.451 46.1028C104.417 40.8967 104.451 35.6913 104.554 30.4863C104.702 30.5981 104.805 30.7352 104.863 30.8973Z" fill="#383838"/>
<path opacity="0.573" fill-rule="evenodd" clip-rule="evenodd" d="M86.9223 30.6919C87.2122 30.7891 87.3498 30.9946 87.3347 31.3083C87.0448 31.2111 86.9072 31.0057 86.9223 30.6919Z" fill="#383838"/>
<path opacity="0.427" fill-rule="evenodd" clip-rule="evenodd" d="M89.3968 30.8975C89.4119 31.2112 89.2743 31.4167 88.9844 31.5139C88.9693 31.2001 89.1069 30.9947 89.3968 30.8975Z" fill="#383838"/>
<path opacity="0.478" fill-rule="evenodd" clip-rule="evenodd" d="M87.3347 31.3081C87.6247 31.4053 87.7622 31.6108 87.7472 31.9245C87.4572 31.8274 87.3197 31.6219 87.3347 31.3081Z" fill="#383838"/>
<path opacity="0.957" fill-rule="evenodd" clip-rule="evenodd" d="M24.6434 31.1025C24.3937 31.606 24.0499 32.0169 23.6123 32.3354C23.6123 32.267 23.6123 32.1984 23.6123 32.1299C23.8185 31.6506 24.1623 31.308 24.6434 31.1025Z" fill="#969593"/>
<path opacity="0.388" fill-rule="evenodd" clip-rule="evenodd" d="M87.7471 31.9248C88.037 32.022 88.1746 32.2275 88.1595 32.5412C87.8696 32.4441 87.732 32.2386 87.7471 31.9248Z" fill="#383838"/>
<path opacity="0.435" fill-rule="evenodd" clip-rule="evenodd" d="M110.019 31.9248C110.309 32.022 110.446 32.2275 110.431 32.5412C110.141 32.4441 110.004 32.2386 110.019 31.9248Z" fill="#383838"/>
<path opacity="0.89" fill-rule="evenodd" clip-rule="evenodd" d="M110.431 32.541C110.795 32.6976 111.001 32.9717 111.05 33.3629C110.687 33.2064 110.481 32.9322 110.431 32.541Z" fill="#383838"/>
<path opacity="0.62" fill-rule="evenodd" clip-rule="evenodd" d="M163.637 32.9521C164.038 33.0621 164.244 33.336 164.255 33.7741C163.951 33.5817 163.745 33.3076 163.637 32.9521Z" fill="#383838"/>
<path opacity="0.678" fill-rule="evenodd" clip-rule="evenodd" d="M164.255 33.7741C164.57 33.7591 164.776 33.8961 164.874 34.185C164.559 34.2 164.353 34.063 164.255 33.7741Z" fill="#383838"/>
<path opacity="0.812" fill-rule="evenodd" clip-rule="evenodd" d="M64.4441 33.9796C64.759 33.9646 64.9652 34.1017 65.0628 34.3906C64.7479 34.4056 64.5416 34.2685 64.4441 33.9796Z" fill="#383838"/>
<path opacity="0.565" fill-rule="evenodd" clip-rule="evenodd" d="M65.0627 34.3903C65.3776 34.3753 65.5839 34.5123 65.6814 34.8012C65.3665 34.8162 65.1603 34.6792 65.0627 34.3903Z" fill="#383838"/>
<path opacity="0.886" fill-rule="evenodd" clip-rule="evenodd" d="M23.6123 32.1304C23.6123 32.1988 23.6123 32.2674 23.6123 32.3359C22.375 33.4317 21.2063 34.5961 20.1065 35.829C19.969 35.8974 19.8316 35.9661 19.6941 36.0345C19.6941 35.9661 19.6941 35.8974 19.6941 35.829C19.8316 35.6235 19.969 35.418 20.1065 35.2126C21.2181 34.1042 22.3865 33.0768 23.6123 32.1304Z" fill="#A38280"/>
<path opacity="0.878" fill-rule="evenodd" clip-rule="evenodd" d="M112.494 35.2124C112.857 35.369 113.063 35.6431 113.112 36.0343C112.749 35.8777 112.543 35.6036 112.494 35.2124Z" fill="#383838"/>
<path opacity="0.439" fill-rule="evenodd" clip-rule="evenodd" d="M75.7863 35.418C76.0762 35.5152 76.2138 35.7206 76.1987 36.0344C75.9088 35.9372 75.7712 35.7317 75.7863 35.418Z" fill="#383838"/>
<path opacity="0.208" fill-rule="evenodd" clip-rule="evenodd" d="M19.0755 18.7739C19.0072 24.5627 19.0759 30.3161 19.2817 36.0342C19.2817 36.1713 19.2817 36.3081 19.2817 36.4452C19.213 36.4452 19.1442 36.4452 19.0755 36.4452C13.0617 36.2401 7.01254 36.1717 0.928044 36.2397C0.928044 36.4452 0.928044 36.6506 0.928044 36.8561C0.735334 36.6367 0.666594 36.3628 0.721822 36.0342C6.77097 36.0342 12.8201 36.0342 18.8693 36.0342C18.801 30.2454 18.8697 24.492 19.0755 18.7739Z" fill="#FBD1D1"/>
<path opacity="0.839" fill-rule="evenodd" clip-rule="evenodd" d="M37.8416 18.7739C37.6387 24.6554 37.5701 30.5456 37.6354 36.4452C31.5822 36.3097 25.6018 36.4468 19.6942 36.8561C19.6254 36.8561 19.5567 36.8561 19.488 36.8561C19.4192 36.7191 19.3505 36.5822 19.2817 36.4452C19.2817 36.3081 19.2817 36.1713 19.2817 36.0342C19.4192 36.0342 19.5567 36.0342 19.6942 36.0342C19.8317 35.9658 19.9691 35.8971 20.1066 35.8287C25.8656 36.0323 31.6397 36.1008 37.4292 36.0342C37.4636 30.5543 37.4292 25.075 37.3261 19.5958C36.9638 20.17 36.4482 20.5125 35.7794 20.6232C36.1919 20.0753 36.6043 19.5274 37.0168 18.9794C37.1543 18.9794 37.2917 18.9794 37.4292 18.9794C37.5668 18.9109 37.7041 18.8424 37.8416 18.7739Z" fill="#75C7C7"/>
<path opacity="0.478" fill-rule="evenodd" clip-rule="evenodd" d="M19.0754 36.4453C13.0223 36.3098 7.0419 36.4469 1.1342 36.8562C1.06546 36.8562 0.996718 36.8562 0.927979 36.8562C0.927979 36.6507 0.927979 36.4453 0.927979 36.2398C7.01247 36.1718 13.0616 36.2402 19.0754 36.4453Z" fill="#FE9797"/>
<path opacity="0.384" fill-rule="evenodd" clip-rule="evenodd" d="M90.2218 36.0342C90.2218 39.4589 90.2218 42.8834 90.2218 46.3082C88.8768 46.3745 87.5708 46.3061 86.3036 46.1027C87.5409 46.1027 88.7782 46.1027 90.0156 46.1027C89.9475 42.7104 90.0164 39.3543 90.2218 36.0342Z" fill="#383838"/>
<path opacity="0.843" fill-rule="evenodd" clip-rule="evenodd" d="M19.0755 36.445C19.1443 36.445 19.213 36.445 19.2817 36.445C19.3505 36.5821 19.4192 36.7189 19.488 36.856C19.4192 36.856 19.3505 36.856 19.2817 36.856C16.3065 36.7206 13.3163 36.6521 10.3111 36.6505C7.31759 36.6507 4.39612 36.7875 1.54672 37.0614C1.40924 36.993 1.27176 36.9244 1.13428 36.856C7.04198 36.4467 13.0224 36.3096 19.0755 36.445Z" fill="#FB4A49"/>
<path opacity="0.262" fill-rule="evenodd" clip-rule="evenodd" d="M37.8416 18.7739C37.9103 18.7739 37.9791 18.7739 38.0478 18.7739C38.0478 21.5822 38.0478 24.3903 38.0478 27.1986C38.0478 36.0342 38.0478 44.8698 38.0478 53.7054C37.9791 53.7054 37.9103 53.7054 37.8416 53.7054C37.9098 47.9167 37.8412 42.1632 37.6354 36.4452C37.57 30.5456 37.6387 24.6554 37.8416 18.7739Z" fill="#BEE6E5"/>
<path opacity="0.373" fill-rule="evenodd" clip-rule="evenodd" d="M76.1987 36.0342C76.4887 36.1314 76.6262 36.3369 76.6112 36.6506C76.3212 36.5534 76.1837 36.3479 76.1987 36.0342Z" fill="#383838"/>
<path opacity="0.999" fill-rule="evenodd" clip-rule="evenodd" d="M19.2817 36.8564C19.2817 42.4727 19.2817 48.0893 19.2817 53.7057C18.3315 53.0342 17.4379 52.2807 16.6008 51.4454C16.2421 50.8818 15.7609 50.4708 15.1572 50.2125C15.0197 50.007 14.8823 49.8016 14.7448 49.5961C13.6278 48.2769 12.3905 47.1125 11.0328 46.1029C9.24008 44.3849 7.45283 42.6727 5.67106 40.9659C4.70175 39.7744 3.60189 38.747 2.37152 37.8838C2.16529 37.7467 1.95907 37.6099 1.75285 37.4728C1.68411 37.3357 1.61537 37.1989 1.54663 37.0618C4.39603 36.7879 7.3175 36.6511 10.311 36.6509C13.3163 36.6525 16.3065 36.7209 19.2817 36.8564Z" fill="#FD2929"/>
<path opacity="0.999" fill-rule="evenodd" clip-rule="evenodd" d="M37.6353 36.445C37.771 42.2025 37.6337 47.8875 37.2229 53.4998C37.0016 52.9376 36.5892 52.5951 35.9856 52.4724C34.7482 51.308 33.5109 50.1437 32.2736 48.9793C32.2002 48.632 31.9939 48.4265 31.6549 48.3628C31.6574 47.8199 31.3825 47.546 30.83 47.5409C30.8325 46.998 30.5576 46.7241 30.0052 46.719C29.0374 45.8229 28.0751 44.9323 27.1181 44.0477C26.9805 43.7738 26.7743 43.5684 26.4994 43.4313C24.9872 41.993 23.4747 40.5546 21.9625 39.1162C21.8939 38.9792 21.825 38.8423 21.7563 38.7053C21.535 38.1431 21.1226 37.8006 20.519 37.6779C20.1753 37.4724 19.9003 37.1985 19.6941 36.856C25.6017 36.4467 31.5821 36.3096 37.6353 36.445Z" fill="#0F9897"/>
<path opacity="0.545" fill-rule="evenodd" clip-rule="evenodd" d="M37.6353 36.4453C37.8412 42.1634 37.9098 47.9168 37.8416 53.7056C37.8416 53.774 37.8416 53.8426 37.8416 53.9111C37.7729 53.9111 37.704 53.9111 37.6353 53.9111C37.5667 53.9111 37.4978 53.9111 37.4291 53.9111C37.3604 53.774 37.2916 53.6372 37.2229 53.5001C37.6337 47.8878 37.771 42.2028 37.6353 36.4453Z" fill="#76C5C4"/>
<path fill-rule="evenodd" clip-rule="evenodd" d="M19.2817 36.856C19.3505 36.856 19.4192 36.856 19.488 36.856C19.5567 36.856 19.6254 36.856 19.6942 36.856C19.9004 37.1985 20.1754 37.4724 20.5191 37.6779C20.7253 38.0204 21.0002 38.2943 21.344 38.4998C21.344 38.9108 21.5502 39.1162 21.9626 39.1162C23.4748 40.5546 24.9873 41.9929 26.4995 43.4313C26.4995 43.8423 26.7057 44.0477 27.1181 44.0477C28.0752 44.9323 29.0374 45.8229 30.0052 46.719C30.2115 47.0615 30.4864 47.3354 30.8301 47.5409C31.0363 47.8834 31.3112 48.1573 31.655 48.3628C31.7284 48.7101 31.9346 48.9155 32.2737 48.9792C33.511 50.1437 34.7483 51.3079 35.9857 52.4724C36.2725 52.9635 36.685 53.306 37.223 53.4998C37.2917 53.6368 37.3605 53.7737 37.4292 53.9108C37.4636 59.5275 37.4292 65.1441 37.3261 70.7601C37.1877 70.6055 37.0159 70.5369 36.8105 70.5546C35.7108 69.5956 34.6797 68.5682 33.7172 67.4724C33.3586 66.9088 32.8773 66.4978 32.2737 66.2395C31.5785 65.3208 30.7536 64.5675 29.799 63.9792C28.2868 62.5409 26.7744 61.1025 25.2622 59.6642C25.0559 59.3216 24.781 59.0477 24.4373 58.8423C23.7371 57.9386 22.9123 57.1853 21.9626 56.582C20.9187 55.7479 20.0251 54.789 19.2817 53.7053C19.2817 48.0889 19.2817 42.4723 19.2817 36.856Z" fill="#D30302"/>
<path opacity="0.49" fill-rule="evenodd" clip-rule="evenodd" d="M71.6619 37.2672C71.9768 37.2522 72.183 37.3893 72.2805 37.6782C71.9656 37.6932 71.7594 37.5561 71.6619 37.2672Z" fill="#383838"/>
<path opacity="0.878" fill-rule="evenodd" clip-rule="evenodd" d="M172.092 37.4727C172.573 37.5411 172.848 37.8152 172.916 38.2946C172.573 38.0891 172.298 37.8152 172.092 37.4727Z" fill="#383838"/>
<path opacity="0.953" fill-rule="evenodd" clip-rule="evenodd" d="M20.519 37.6782C21.1227 37.8009 21.5351 38.1434 21.7564 38.7056C21.6188 38.6372 21.4815 38.5686 21.3439 38.5001C21.0002 38.2947 20.7253 38.0208 20.519 37.6782Z" fill="#5C716F"/>
<path opacity="0.435" fill-rule="evenodd" clip-rule="evenodd" d="M114.762 38.0889C115.052 38.1861 115.19 38.3915 115.175 38.7053C114.885 38.6081 114.747 38.4026 114.762 38.0889Z" fill="#383838"/>
<path opacity="0.929" fill-rule="evenodd" clip-rule="evenodd" d="M21.3439 38.5C21.4814 38.5684 21.6188 38.6371 21.7563 38.7055C21.825 38.8425 21.8939 38.9794 21.9625 39.1164C21.5501 39.1164 21.3439 38.911 21.3439 38.5Z" fill="#A43835"/>
<path opacity="0.741" fill-rule="evenodd" clip-rule="evenodd" d="M2.37158 37.8838C3.60196 38.747 4.70182 39.7744 5.67112 40.966C4.44571 40.088 3.34585 39.0606 2.37158 37.8838Z" fill="#FF726F"/>
<path opacity="0.824" fill-rule="evenodd" clip-rule="evenodd" d="M64.0317 40.3491C64.5129 40.6917 64.9253 41.1026 65.2691 41.582C64.6504 41.3765 64.238 40.9656 64.0317 40.3491Z" fill="#383838"/>
<path opacity="0.965" fill-rule="evenodd" clip-rule="evenodd" d="M164.255 40.555C164.128 40.5322 164.025 40.4638 163.946 40.3495C163.239 41.1589 162.448 41.8438 161.574 42.4043C162.264 41.546 163.054 40.7925 163.946 40.144C164.158 40.2131 164.261 40.3501 164.255 40.555Z" fill="#383838"/>
<path opacity="0.557" fill-rule="evenodd" clip-rule="evenodd" d="M73.1054 41.377C72.9679 41.925 72.6243 42.2673 72.0743 42.4044C72.3492 41.9934 72.693 41.6509 73.1054 41.377Z" fill="#383838"/>
<path opacity="0.608" fill-rule="evenodd" clip-rule="evenodd" d="M64.0317 40.3491C63.013 41.021 62.1194 41.843 61.3508 42.8149C61.1395 42.7333 61.105 42.5964 61.2477 42.4039C61.9695 41.6847 62.6913 40.9656 63.4131 40.2464C63.6706 40.0943 63.8768 40.1286 64.0317 40.3491Z" fill="#383838"/>
<path opacity="0.655" fill-rule="evenodd" clip-rule="evenodd" d="M61.7633 43.4316C62.156 43.4805 62.431 43.686 62.5882 44.0481C62.1955 43.9992 61.9204 43.7937 61.7633 43.4316Z" fill="#383838"/>
<path opacity="0.957" fill-rule="evenodd" clip-rule="evenodd" d="M26.4994 43.4316C26.7743 43.5687 26.9805 43.7742 27.1181 44.0481C26.7056 44.0481 26.4994 43.8426 26.4994 43.4316Z" fill="#A63933"/>
<path opacity="0.859" fill-rule="evenodd" clip-rule="evenodd" d="M63.0006 44.459C63.3933 44.5079 63.6684 44.7134 63.8255 45.0754C63.4328 45.0265 63.1578 44.821 63.0006 44.459Z" fill="#383838"/>
<path opacity="0.737" fill-rule="evenodd" clip-rule="evenodd" d="M65.4752 45.8972C66.0221 45.8787 66.5032 46.0155 66.9188 46.3081C66.3719 46.3266 65.8908 46.1898 65.4752 45.8972Z" fill="#383838"/>
<path opacity="0.267" fill-rule="evenodd" clip-rule="evenodd" d="M100.739 23.5C100.808 23.5 100.877 23.5 100.945 23.5C100.945 31.0343 100.945 38.5684 100.945 46.1027C102.114 46.1027 103.282 46.1027 104.451 46.1027C104.52 46.1027 104.589 46.1027 104.657 46.1027C103.39 46.3062 102.084 46.3746 100.739 46.3082C100.739 38.7055 100.739 31.1027 100.739 23.5Z" fill="#383838"/>
<path opacity="0.267" fill-rule="evenodd" clip-rule="evenodd" d="M124.042 23.5C124.111 23.5 124.18 23.5 124.248 23.5C124.248 31.0343 124.248 38.5684 124.248 46.1027C129.335 46.1027 134.422 46.1027 139.509 46.1027C134.389 46.3078 129.233 46.3762 124.042 46.3082C124.042 38.7055 124.042 31.1027 124.042 23.5Z" fill="#383838"/>
<path opacity="0.659" fill-rule="evenodd" clip-rule="evenodd" d="M165.492 45.8972C166.039 45.8787 166.521 46.0155 166.936 46.3081C166.389 46.3266 165.908 46.1898 165.492 45.8972Z" fill="#383838"/>
<path opacity="0.945" fill-rule="evenodd" clip-rule="evenodd" d="M30.0051 46.7192C30.5576 46.7244 30.8325 46.9983 30.83 47.5412C30.4862 47.3357 30.2113 47.0618 30.0051 46.7192Z" fill="#637472"/>
<path opacity="0.784" fill-rule="evenodd" clip-rule="evenodd" d="M11.0328 46.1025C12.3905 47.1121 13.6279 48.2765 14.7448 49.5957C13.3817 48.5804 12.1444 47.416 11.0328 46.1025Z" fill="#FE6C69"/>
<path opacity="0.941" fill-rule="evenodd" clip-rule="evenodd" d="M30.8301 47.541C31.3825 47.5462 31.6574 47.8201 31.655 48.3629C31.3112 48.1575 31.0363 47.8835 30.8301 47.541Z" fill="#6A6F6C"/>
<path opacity="0.945" fill-rule="evenodd" clip-rule="evenodd" d="M31.6549 48.3628C31.9939 48.4265 32.2002 48.632 32.2736 48.9792C31.9345 48.9155 31.7283 48.7101 31.6549 48.3628Z" fill="#9F433D"/>
<path opacity="0.651" fill-rule="evenodd" clip-rule="evenodd" d="M15.1572 50.2124C15.7609 50.4707 16.2421 50.8816 16.6008 51.4453C15.9971 51.187 15.5159 50.776 15.1572 50.2124Z" fill="#FF9291"/>
<path opacity="0.898" fill-rule="evenodd" clip-rule="evenodd" d="M35.9856 52.4727C36.5892 52.5953 37.0016 52.9379 37.2229 53.5001C36.6849 53.3063 36.2724 52.9638 35.9856 52.4727Z" fill="#697977"/>
<path opacity="0.999" fill-rule="evenodd" clip-rule="evenodd" d="M83.6227 53.0892C85.821 52.9197 87.677 53.6047 89.1907 55.144C88.9158 55.5549 88.572 55.8975 88.1596 56.1714C86.2009 54.5481 84.07 54.3085 81.7667 55.4522C78.8283 58.2494 78.7594 61.1261 81.5605 64.0823C83.9995 65.4482 86.2679 65.2084 88.3658 63.3632C88.6714 63.7706 89.0152 64.1473 89.3969 64.4933C87.6073 66.2238 85.4762 66.8403 83.004 66.3426C79.7893 65.3869 78.0708 63.2294 77.8485 59.87C78.0947 56.1459 80.0194 53.8856 83.6227 53.0892Z" fill="#787878"/>
<path opacity="0.333" fill-rule="evenodd" clip-rule="evenodd" d="M132.497 53.5002C135.279 53.2955 138.097 53.2271 140.952 53.2947C141.014 53.8205 140.946 54.3001 140.746 54.7331C140.746 54.3221 140.746 53.9112 140.746 53.5002C137.996 53.5002 135.247 53.5002 132.497 53.5002Z" fill="#787878"/>
<path opacity="0.333" fill-rule="evenodd" clip-rule="evenodd" d="M169.617 53.5001C169.022 53.4372 168.472 53.5057 167.967 53.7056C167.855 53.6933 167.786 53.6248 167.761 53.5001C168.409 53.2324 169.028 53.2324 169.617 53.5001Z" fill="#787878"/>
<path opacity="0.333" fill-rule="evenodd" clip-rule="evenodd" d="M177.247 53.5C177.752 53.3001 178.302 53.2317 178.897 53.2946C178.897 53.5 178.897 53.7055 178.897 53.911C178.828 53.911 178.759 53.911 178.691 53.911C178.324 53.5321 177.843 53.3952 177.247 53.5Z" fill="#787878"/>
<path opacity="0.999" fill-rule="evenodd" clip-rule="evenodd" d="M66.0939 53.2945C66.5665 53.2419 67.0134 53.3103 67.4343 53.5C69.1796 57.73 70.8638 61.9766 72.4867 66.2397C71.9203 66.304 71.3703 66.2356 70.837 66.0342C70.4245 65.0752 70.0121 64.1165 69.5996 63.1575C67.675 62.8836 65.7501 62.8836 63.8255 63.1575C63.413 64.1165 63.0006 65.0752 62.5881 66.0342C62.0548 66.2356 61.5048 66.304 60.9384 66.2397C62.6158 61.9109 64.3344 57.5958 66.0939 53.2945ZM66.5063 56.1712C66.6439 56.1712 66.7812 56.1712 66.9188 56.1712C67.5296 57.932 68.2171 59.6442 68.981 61.3082C67.4688 61.5821 65.9563 61.5821 64.4441 61.3082C65.2894 59.6744 65.9768 57.9622 66.5063 56.1712Z" fill="#787878"/>
<path fill-rule="evenodd" clip-rule="evenodd" d="M100.327 53.2945C100.745 53.2612 101.157 53.2956 101.564 53.3973C103.425 57.6246 105.143 61.9056 106.72 66.2397C106.153 66.304 105.603 66.2356 105.07 66.0342C104.657 65.0753 104.245 64.1165 103.832 63.1575C101.908 62.8836 99.9829 62.8836 98.0582 63.1575C97.66 64.1083 97.2818 65.0673 96.924 66.0342C96.3476 66.2979 95.7634 66.2979 95.1711 66.0342C96.8923 61.7833 98.6107 57.5366 100.327 53.2945ZM101.152 56.1712C101.762 57.932 102.45 59.6442 103.214 61.3082C101.74 61.5121 100.227 61.5805 98.6769 61.5137C99.4207 59.8255 100.108 58.113 100.739 56.3767C100.877 56.3083 101.014 56.2397 101.152 56.1712Z" fill="#787878"/>
<path opacity="0.631" fill-rule="evenodd" clip-rule="evenodd" d="M119.505 53.5C117.649 53.5 115.793 53.5 113.937 53.5C113.937 57.7466 113.937 61.9931 113.937 66.2397C113.732 61.9602 113.663 57.6451 113.731 53.2945C115.693 53.2273 117.618 53.2957 119.505 53.5Z" fill="#787878"/>
<path opacity="0.999" fill-rule="evenodd" clip-rule="evenodd" d="M119.505 53.5C123.643 54.3406 125.465 56.875 124.97 61.1027C124.409 63.7851 122.794 65.4632 120.124 66.137C118.063 66.2397 116.001 66.2738 113.937 66.2397C113.937 61.9931 113.937 57.7466 113.937 53.5C115.793 53.5 117.649 53.5 119.505 53.5ZM121.361 55.5548C121.636 55.9658 121.98 56.3083 122.392 56.5822C123.967 59.2193 123.692 61.6508 121.567 63.8767C120.973 64.2071 120.354 64.481 119.711 64.6986C118.201 64.8014 116.688 64.8355 115.175 64.8014C115.175 61.4453 115.175 58.089 115.175 54.7329C117.316 54.5412 119.378 54.8151 121.361 55.5548Z" fill="#787878"/>
<path opacity="0.999" fill-rule="evenodd" clip-rule="evenodd" d="M132.497 53.5C135.247 53.5 137.996 53.5 140.746 53.5C140.746 53.911 140.746 54.3219 140.746 54.7329C138.478 54.7329 136.209 54.7329 133.941 54.7329C133.941 56.1712 133.941 57.6096 133.941 59.0479C136.14 59.0479 138.34 59.0479 140.54 59.0479C140.54 59.4589 140.54 59.8699 140.54 60.2808C138.34 60.2808 136.14 60.2808 133.941 60.2808C133.941 61.7876 133.941 63.2946 133.941 64.8014C136.279 64.7671 138.616 64.8014 140.952 64.9041C141.143 65.3235 141.211 65.7688 141.158 66.2397C138.271 66.2397 135.384 66.2397 132.497 66.2397C132.497 61.9931 132.497 57.7466 132.497 53.5Z" fill="#787878"/>
<path fill-rule="evenodd" clip-rule="evenodd" d="M155.181 63.3632C154.686 63.3739 154.205 63.3055 153.738 63.1577C152.501 61.1029 151.263 59.0481 150.026 56.9933C150.034 56.7353 149.931 56.5298 149.717 56.3769C149.613 59.664 149.579 62.9516 149.613 66.2399C149.201 66.2399 148.789 66.2399 148.376 66.2399C148.376 61.9248 148.376 57.6098 148.376 53.2947C148.901 53.2133 149.348 53.3504 149.717 53.7057C151.28 56.3428 152.896 58.9456 154.563 61.5139C156.23 58.9456 157.845 56.3428 159.409 53.7057C159.778 53.3504 160.225 53.2133 160.749 53.2947C160.749 57.6098 160.749 61.9248 160.749 66.2399C160.268 66.2399 159.787 66.2399 159.306 66.2399C159.34 63.0885 159.306 59.9379 159.203 56.7879C157.909 59.027 156.569 61.2188 155.181 63.3632Z" fill="#787878"/>
<path opacity="0.999" fill-rule="evenodd" clip-rule="evenodd" d="M169.617 53.4999C170.986 55.2644 172.258 57.1137 173.432 59.0478C174.606 57.1137 175.878 55.2644 177.247 53.4999C177.843 53.3951 178.324 53.532 178.691 53.9109C177.258 56.127 175.78 58.3188 174.257 60.4862C174.154 62.4027 174.12 64.3207 174.154 66.2396C173.673 66.2396 173.191 66.2396 172.71 66.2396C172.744 64.3891 172.71 62.5398 172.607 60.6917C171.096 58.3313 169.549 56.0026 167.967 53.7054C168.472 53.5054 169.022 53.437 169.617 53.4999Z" fill="#787878"/>
<path opacity="0.824" fill-rule="evenodd" clip-rule="evenodd" d="M121.361 55.5547C121.911 55.6917 122.255 56.0341 122.392 56.5821C121.98 56.3082 121.636 55.9656 121.361 55.5547Z" fill="#787878"/>
<path opacity="0.067" fill-rule="evenodd" clip-rule="evenodd" d="M66.9188 56.1713C66.7812 56.1713 66.6439 56.1713 66.5063 56.1713C66.6439 55.6233 66.7812 55.6233 66.9188 56.1713Z" fill="#787878"/>
<path opacity="0.01" fill-rule="evenodd" clip-rule="evenodd" d="M101.151 56.1713C101.014 56.2398 100.877 56.3084 100.739 56.3768C100.849 55.7686 100.986 55.7002 101.151 56.1713Z" fill="#787878"/>
<path opacity="0.675" fill-rule="evenodd" clip-rule="evenodd" d="M150.026 56.9934C149.888 60.0756 149.751 63.1578 149.614 66.24C149.579 62.9517 149.614 59.664 149.717 56.377C149.931 56.5298 150.034 56.7353 150.026 56.9934Z" fill="#787878"/>
<path opacity="0.2" fill-rule="evenodd" clip-rule="evenodd" d="M64.4441 61.3081C65.9564 61.582 67.4688 61.582 68.981 61.3081C69.093 61.3204 69.1617 61.3889 69.1872 61.5136C67.5375 61.7875 65.8877 61.7875 64.2379 61.5136C64.2635 61.3889 64.3322 61.3204 64.4441 61.3081Z" fill="#787878"/>
<path opacity="0.2" fill-rule="evenodd" clip-rule="evenodd" d="M103.214 61.3081C103.326 61.3204 103.394 61.3889 103.42 61.5136C102.595 61.582 101.77 61.6506 100.945 61.7191C100.033 61.7265 99.2768 61.6578 98.6769 61.5136C100.227 61.5804 101.74 61.5119 103.214 61.3081Z" fill="#787878"/>
<path opacity="0.4" fill-rule="evenodd" clip-rule="evenodd" d="M153.738 63.1577C154.205 63.3055 154.686 63.3739 155.181 63.3632C155.022 63.4961 154.816 63.5646 154.563 63.5687C154.18 63.6016 153.905 63.4645 153.738 63.1577Z" fill="#787878"/>
<path opacity="0.024" fill-rule="evenodd" clip-rule="evenodd" d="M1.75293 37.4727C1.95915 37.6097 2.16537 37.7466 2.37159 37.8836C3.34586 39.0604 4.44572 40.0878 5.67113 40.9658C7.4529 42.6725 9.24016 44.3848 11.0329 46.1028C12.1444 47.4162 13.3817 48.5807 14.7449 49.5959C14.8824 49.8014 15.0198 50.0069 15.1573 50.2124C15.516 50.776 15.9972 51.187 16.6009 51.4453C17.438 52.2805 18.3316 53.034 19.2817 53.7055C20.0251 54.7892 20.9187 55.7482 21.9626 56.5822C22.6627 57.4859 23.4876 58.2392 24.4373 58.8425C24.5059 59.3219 24.781 59.596 25.2621 59.6644C26.7744 61.1028 28.2868 62.5412 29.799 63.9795C30.4991 64.8832 31.324 65.6365 32.2737 66.2398C32.6323 66.8034 33.1136 67.2144 33.7172 67.4727C34.6796 68.5685 35.7108 69.5959 36.8105 70.5548C36.8792 70.6919 36.9481 70.8288 37.0168 70.9658C37.237 71.1577 37.5119 71.2264 37.8416 71.1713C37.8416 65.4179 37.8416 59.6644 37.8416 53.911C37.8416 53.8426 37.8416 53.774 37.8416 53.7055C37.9103 53.7055 37.9792 53.7055 38.0479 53.7055C38.0479 59.6644 38.0479 65.6233 38.0479 71.5822C37.7497 71.8109 37.4059 71.8453 37.0168 71.685C25.3578 60.5131 13.672 49.3829 1.95915 38.2946C1.89041 38.0207 1.82167 37.7466 1.75293 37.4727Z" fill="#FBE0DF"/>
<path opacity="0.824" fill-rule="evenodd" clip-rule="evenodd" d="M32.2736 66.2397C32.8772 66.498 33.3585 66.909 33.7171 67.4726C33.1135 67.2143 32.6322 66.8034 32.2736 66.2397Z" fill="#E1514E"/>
<path opacity="0.69" fill-rule="evenodd" clip-rule="evenodd" d="M29.799 63.9795C30.7535 64.5678 31.5784 65.3211 32.2736 66.2398C31.324 65.6365 30.4991 64.8832 29.799 63.9795Z" fill="#E56561"/>
<path opacity="0.349" fill-rule="evenodd" clip-rule="evenodd" d="M24.4373 58.8423C24.781 59.0478 25.0559 59.3217 25.2621 59.6642C24.781 59.5958 24.5059 59.3217 24.4373 58.8423Z" fill="#EC8B8A"/>
<path opacity="0.745" fill-rule="evenodd" clip-rule="evenodd" d="M21.9625 56.582C22.9122 57.1853 23.7371 57.9386 24.4372 58.8423C23.4875 58.239 22.6626 57.4857 21.9625 56.582Z" fill="#E66B69"/>
<path opacity="0.396" fill-rule="evenodd" clip-rule="evenodd" d="M37.6354 53.9111C37.7041 53.9111 37.7729 53.9111 37.8416 53.9111C37.8416 59.6646 37.8416 65.418 37.8416 71.1714C37.5119 71.2265 37.237 71.1578 37.0167 70.9659C37.2229 70.9659 37.4292 70.9659 37.6354 70.9659C37.6354 65.2809 37.6354 59.5961 37.6354 53.9111Z" fill="#ED9999"/>
<path opacity="0.667" fill-rule="evenodd" clip-rule="evenodd" d="M37.4291 53.9111C37.4978 53.9111 37.5666 53.9111 37.6353 53.9111C37.6353 59.5961 37.6353 65.2809 37.6353 70.9659C37.4291 70.9659 37.2229 70.9659 37.0166 70.9659C36.948 70.8289 36.8791 70.692 36.8104 70.555C37.0158 70.5373 37.1876 70.6059 37.326 70.7604C37.4291 65.1445 37.4635 59.5279 37.4291 53.9111Z" fill="#E15555"/>
</svg>
